# xmcd
#
# Track frame offsets:
#	150
#	57850
#	71050
#	79212
#	86262
#	99650
#	147087
#	159775
#	199100
#
# Disc length: 2824 seconds
#
# Revision: 1
# Processed by: cddbd v1.4PL0 Copyright (c) Steve Scherf et al.
# Submitted via: EasyCDDAExtractor 5.0.6
#
DISCID=6e0b0609
DTITLE=The Doors - Live - Unauthorised
DYEAR=1990
DGENRE=Blues
TTITLE0=When The Musics Over
TTITLE1=Moonlight Drive
TTITLE2=Horses Latitudes
TTITLE3=Money
TTITLE4=Gloria
TTITLE5=Light My Fire
TTITLE6=The Hill Dwellers
TTITLE7=No Limits No Law
TTITLE8=Sunday Soon
EXTD=
EXTT0=
EXTT1=
EXTT2=
EXTT3=
EXTT4=
EXTT5=
EXTT6=
EXTT7=
EXTT8=
PLAYORDER=
